<svg xmlns="http://www.w3.org/2000/svg" xmlns:xlink="http://www.w3.org/1999/xlink" width="250" zoomAndPan="magnify" viewBox="0 0 187.5 187.499992" height="250" preserveAspectRatio="xMidYMid meet" version="1.0"><defs><g/><clipPath id="75a6556a6a"><path d="M 7.546875 7.546875 L 179.453125 7.546875 L 179.453125 179.453125 L 7.546875 179.453125 Z M 7.546875 7.546875 " clip-rule="nonzero"/></clipPath><clipPath id="b5a046ed36"><path d="M 93.5 7.546875 C 46.03125 7.546875 7.546875 46.03125 7.546875 93.5 C 7.546875 140.96875 46.03125 179.453125 93.5 179.453125 C 140.96875 179.453125 179.453125 140.96875 179.453125 93.5 C 179.453125 46.03125 140.96875 7.546875 93.5 7.546875 Z M 93.5 7.546875 " clip-rule="nonzero"/></clipPath></defs><g clip-path="url(#75a6556a6a)"><g clip-path="url(#b5a046ed36)"><path fill="#1c1c1c" d="M 7.546875 7.546875 L 179.453125 7.546875 L 179.453125 179.453125 L 7.546875 179.453125 Z M 7.546875 7.546875 " fill-opacity="1" fill-rule="nonzero"/></g></g><g fill="#ffffff" fill-opacity="1"><g transform="translate(44.041948, 156.758371)"><g><path d="M 53.578125 -123.640625 C 60.148438 -123.640625 66.578125 -122.679688 72.859375 -120.765625 C 79.140625 -118.847656 83.800781 -116.957031 86.84375 -115.09375 L 91.25 -112.15625 L 80.0625 -90.078125 C 79.1875 -90.671875 77.960938 -91.429688 76.390625 -92.359375 C 74.816406 -93.296875 71.867188 -94.546875 67.546875 -96.109375 C 63.234375 -97.679688 59.210938 -98.46875 55.484375 -98.46875 C 50.878906 -98.46875 47.320312 -97.484375 44.8125 -95.515625 C 42.3125 -93.554688 41.0625 -90.910156 41.0625 -87.578125 C 41.0625 -85.910156 41.648438 -84.363281 42.828125 -82.9375 C 44.003906 -81.519531 46.015625 -80 48.859375 -78.375 C 51.710938 -76.757812 54.21875 -75.457031 56.375 -74.46875 C 58.53125 -73.488281 61.863281 -72.019531 66.375 -70.0625 C 74.226562 -66.726562 80.925781 -62.1875 86.46875 -56.4375 C 92.007812 -50.695312 94.78125 -44.195312 94.78125 -36.9375 C 94.78125 -29.976562 93.53125 -23.894531 91.03125 -18.6875 C 88.53125 -13.488281 85.097656 -9.414062 80.734375 -6.46875 C 76.367188 -3.53125 71.535156 -1.351562 66.234375 0.0625 C 60.929688 1.488281 55.191406 2.203125 49.015625 2.203125 C 43.710938 2.203125 38.507812 1.660156 33.40625 0.578125 C 28.300781 -0.492188 24.03125 -1.835938 20.59375 -3.453125 C 17.164062 -5.078125 14.078125 -6.671875 11.328125 -8.234375 C 8.585938 -9.804688 6.578125 -11.132812 5.296875 -12.21875 L 3.390625 -13.828125 L 17.21875 -37.09375 C 18.394531 -36.113281 20.015625 -34.863281 22.078125 -33.34375 C 24.140625 -31.820312 27.796875 -29.785156 33.046875 -27.234375 C 38.296875 -24.679688 42.929688 -23.40625 46.953125 -23.40625 C 58.628906 -23.40625 64.46875 -27.378906 64.46875 -35.328125 C 64.46875 -36.992188 64.050781 -38.535156 63.21875 -39.953125 C 62.382812 -41.378906 60.910156 -42.800781 58.796875 -44.21875 C 56.691406 -45.644531 54.828125 -46.773438 53.203125 -47.609375 C 51.585938 -48.441406 48.9375 -49.71875 45.25 -51.4375 C 41.570312 -53.15625 38.851562 -54.457031 37.09375 -55.34375 C 29.726562 -58.96875 24.035156 -63.503906 20.015625 -68.953125 C 15.992188 -74.398438 13.984375 -80.265625 13.984375 -86.546875 C 13.984375 -97.441406 18.003906 -106.347656 26.046875 -113.265625 C 34.097656 -120.179688 43.273438 -123.640625 53.578125 -123.640625 Z M 53.578125 -123.640625 "/></g></g></g>

</svg>